#!OML:ASF X:\für Bonn\!DataBase\2005_08_12_Daniel\c3d\Daniel.ASF
:FULLY-SPECIFIED
:DEGREES
80
root -3.73059 6.10596 -2.8171 316.731 -78.9244 -353.809
lowerback 59.3425 -4.40573 0.594666
upperback 5.55095 -7.2384 -2.63595
thorax -15.7642 -3.72082 0.603091
lowerneck 5.90149 1.61759 -3.27791
upperneck -3.94564 1.9938 1.87872
head -2.32788 0.98954 1.08988
rclavicle -5.67033e-014 -5.1684e-015
rhumerus 73.3098 -13.2178 -129.592
rradius 9.70474
rwrist 100.399
rhand -15.7098 15.3518
rfingers 7.12502
rthumb 10.4801 -14.367
lclavicle -5.67033e-014 -5.1684e-015
lhumerus 70.8885 3.53818 99.7086
lradius 7.37676
lwrist -74.0941
lhand -17.3915 1.04222
lfingers 7.12502
lthumb 8.85754 30.8363
rfemur 6.94429 -39.0203 -143.617
rtibia 161.766
rfoot -96.1955 70.075
rtoes -3.15518
lfemur -40.5463 66.7704 60.43
ltibia 158.921
lfoot -14.8624 -66.8147
ltoes 4.67282
81
root -3.71859 6.11218 -2.81428 316.662 -78.9435 -353.67
lowerback 59.3341 -4.419 0.615769
upperback 5.52113 -7.24035 -2.65306
thorax -15.8043 -3.71866 0.576949
lowerneck 6.08357 1.62393 -3.40616
upperneck -4.03065 1.98815 1.91365
head -2.39238 0.987344 1.12358
rclavicle -7.37988e-014 3.57812e-015
rhumerus 73.5242 -13.2629 -130.193
rradius 9.47153
rwrist 101.121
rhand -15.3913 15.2445
rfingers 7.12502
rthumb 10.7873 -14.4585
lclavicle -7.37988e-014 3.57812e-015
lhumerus 70.7933 3.57274 99.7797
lradius 7.31531
lwrist -73.5937
lhand -17.3619 0.945151
lfingers 7.12502
lthumb 8.88609 30.738
rfemur 7.29287 -39.0475 -143.721
rtibia 161.697
rfoot -95.8793 70.3652
rtoes -2.94707
lfemur -39.588 66.8468 61.3452
ltibia 158.814
lfoot -15.0231 -67.2664
ltoes 5.06353
82
root -3.70576 6.13257 -2.8121 316.604 -78.9856 -353.518
lowerback 59.3093 -4.41607 0.622075
upperback 5.47973 -7.22836 -2.65682
thorax -15.8543 -3.70937 0.565653
lowerneck 6.16771 1.63105 -3.54895
upperneck -4.0376 1.9853 1.96046
head -2.41345 0.986497 1.16378
rclavicle -8.44835e-016 -9.54166e-015
rhumerus 73.5944 -13.4005 -130.753
rradius 9.395
rwrist 101.771
rhand -15.2613 15.2748
rfingers 7.12502
rthumb 10.9128 -14.4217
lclavicle -8.44835e-016 -9.54166e-015
lhumerus 70.623 3.64981 99.8487
lradius 7.41718
lwrist -73.0673
lhand -17.1979 0.813253
lfingers 7.12502
lthumb 9.04436 30.5994
rfemur 7.93762 -39.1146 -143.755
rtibia 161.498
rfoot -95.3076 70.4548
rtoes -2.73762
lfemur -38.3517 66.8296 62.3387
ltibia 158.584
lfoot -15.4526 -67.7823
ltoes 5.35126
83
root -3.69124 6.16646 -2.80962 316.631 -79.0141 -353.376
lowerback 59.2009 -4.42581 0.637211
upperback 5.44342 -7.22235 -2.66395
thorax -15.8948 -3.70191 0.548555
lowerneck 6.11147 1.63234 -3.68908
upperneck -3.97977 1.97984 2.01631
head -2.38702 0.984333 1.20679
rclavicle 1.36167e-014 3.4191e-014
rhumerus 73.4277 -13.7082 -131.263
rradius 9.65276
rwrist 102.307
rhand -15.302 15.4995
rfingers 7.12502
rthumb 10.8735 -14.199
lclavicle 1.36167e-014 3.4191e-014
lhumerus 70.3666 3.73275 99.9173
lradius 7.70929
lwrist -72.5756
lhand -16.9478 0.699401
lfingers 7.12502
lthumb 9.28567 30.4749
rfemur 8.89739 -39.2473 -143.818
rtibia 161.18
rfoot -94.612 70.4172
rtoes -2.52447
lfemur -37.3056 66.7799 62.9047
ltibia 158.245
lfoot -15.8505 -68.2011
ltoes 5.66725
84
root -3.675 6.2115 -2.807 316.695 -79.031 -353.234
lowerback 59.0494 -4.43015 0.638807
upperback 5.41311 -7.21384 -2.65559
thorax -15.9221 -3.69325 0.552782
lowerneck 5.89417 1.62722 -3.77975
upperneck -3.80837 1.97241 2.01783
head -2.29131 0.982056 1.22358
rclavicle -3.85145e-014 -5.96354e-015
rhumerus 73.195 -14.0825 -131.73
rradius 9.98695
rwrist 102.772
rhand -15.5903 15.8564
rfingers 7.12502
rthumb 10.5954 -13.8565
lclavicle -3.85145e-014 -5.96354e-015
lhumerus 70.0997 3.84248 99.9983
lradius 8.05954
lwrist -72.2592
lhand -16.6603 0.595911
lfingers 7.12502
lthumb 9.56313 30.3589
rfemur 10.1508 -39.429 -143.865
rtibia 160.753
rfoot -93.5325 70.2417
rtoes -2.28651
lfemur -36.4643 66.6611 63.052
ltibia 157.802
lfoot -15.7585 -68.5954
ltoes 6.26046
85
root -3.65824 6.2219 -2.80435 316.8 -79.0622 -353.081
lowerback 58.8951 -4.43834 0.639492
upperback 5.3394 -7.20674 -2.65129
thorax -16.0027 -3.68069 0.555604
lowerneck 5.70149 1.62148 -3.85057
upperneck -3.63505 1.96498 2.01371
head -2.19945 0.979374 1.23496
rclavicle 4.23411e-014 9.14409e-015
rhumerus 73.0235 -14.406 -132.225
rradius 10.1252
rwrist 103.194
rhand -16.1113 16.1358
rfingers 7.12502
rthumb 10.0927 -13.6022
lclavicle 4.23411e-014 9.14409e-015
lhumerus 69.8126 3.9525 100.069
lradius 8.40945
lwrist -72.1589
lhand -16.4729 0.555504
lfingers 7.12502
lthumb 9.74397 30.3101
rfemur 10.7833 -39.9887 -143.715
rtibia 160.585
rfoot -92.5525 70.5287
rtoes -2.16443
lfemur -37.8309 66.4199 61.3779
ltibia 157.639
lfoot -14.0827 -68.8339
ltoes 6.77033
86
root -3.63747 6.29163 -2.80175 316.95 -79.0942 -352.923
lowerback 58.6927 -4.4594 0.666796
upperback 5.27485 -7.20106 -2.66949
thorax -16.0743 -3.66936 0.520932
lowerneck 5.39284 1.60725 -3.9241
upperneck -3.37674 1.95088 2.01848
head -2.05891 0.973029 1.24995
rclavicle 3.32467e-014 -2.62396e-014
rhumerus 73.0233 -14.6829 -132.878
rradius 10.1179
rwrist 103.758
rhand -16.7004 16.3089
rfingers 7.12502
rthumb 9.52438 -13.4558
lclavicle 3.32467e-014 -2.62396e-014
lhumerus 69.6358 4.01079 100.123
lradius 8.64363
lwrist -72.4531
lhand -16.3687 0.549532
lfingers 7.12502
lthumb 9.84442 30.2994
rfemur 12.5172 -40.3895 -143.652
rtibia 159.961
rfoot -90.7963 70.3463
rtoes -1.95302
lfemur -37.4605 66.2341 60.6537
ltibia 157.023
lfoot -13.7411 -68.965
ltoes 7.35371
87
root -3.61413 6.3678 -2.79888 317.027 -79.1305 -352.635
lowerback 58.4564 -4.46631 0.676523
upperback 5.19694 -7.18644 -2.6843
thorax -16.1579 -3.65213 0.493294
lowerneck 5.09688 1.59439 -4.01485
upperneck -3.14204 1.93829 2.03706
head -1.92984 0.96728 1.27236
rclavicle -5.11374e-014 3.10104e-014
rhumerus 73.0697 -14.9168 -133.516
rradius 10.0866
rwrist 104.336
rhand -17.3444 16.5069
rfingers 7.12502
rthumb 8.903 -13.2853
lclavicle -5.11374e-014 3.10104e-014
lhumerus 69.5692 4.03317 100.201
lradius 8.73245
lwrist -72.9354
lhand -16.437 0.669694
lfingers 7.12502
lthumb 9.77852 30.4227
rfemur 14.4996 -40.8716 -143.753
rtibia 159.266
rfoot -88.8915 70.3475
rtoes -1.71032
lfemur -37.4747 65.9988 59.414
ltibia 156.372
lfoot -13.4177 -68.9864
ltoes 7.8524
88
root -3.58825 6.45613 -2.79619 317.232 -79.1724 -352.426
lowerback 58.2083 -4.47648 0.681304
upperback 5.09562 -7.17175 -2.67833
thorax -16.2651 -3.6328 0.492162
lowerneck 4.76701 1.58494 -4.1222
upperneck -2.88362 1.93059 2.04369
head -1.78796 0.964291 1.29366
rclavicle -7.05686e-015 -7.55382e-015
rhumerus 73.0632 -15.0724 -134.006
rradius 10.0912
rwrist 104.801
rhand -17.9037 16.6551
rfingers 7.12502
rthumb 8.36327 -13.1593
lclavicle -7.05686e-015 -7.55382e-015
lhumerus 69.5922 4.06466 100.294
lradius 8.73932
lwrist -73.6278
lhand -16.5882 0.807383
lfingers 7.12502
lthumb 9.6327 30.5671
rfemur 16.5466 -41.5132 -143.576
rtibia 158.488
rfoot -86.4631 70.2995
rtoes -1.3827
lfemur -38.1007 65.6723 57.3168
ltibia 155.63
lfoot -13.0078 -68.7627
ltoes 8.39263
89
root -3.56095 6.55867 -2.79358 317.512 -79.2293 -352.274
lowerback 57.9598 -4.49507 0.709832
upperback 4.9845 -7.15144 -2.6726
thorax -16.3851 -3.61134 0.477728
lowerneck 4.428 1.57138 -4.23269
upperneck -2.6034 1.91837 2.04963
head -1.63819 0.95874 1.31543
rclavicle -8.15017e-015 4.65156e-014
rhumerus 73.0505 -15.1325 -134.21
rradius 10.061
rwrist 104.967
rhand -18.2624 16.8416
rfingers 7.12502
rthumb 8.01706 -12.9864
lclavicle -8.15017e-015 4.65156e-014
lhumerus 69.6749 4.07471 100.391
lradius 8.64595
lwrist -74.3529
lhand -16.7745 1.03309
lfingers 7.12502
lthumb 9.45293 30.8011
rfemur 18.6001 -42.3029 -143.116
rtibia 157.578
rfoot -83.6349 70.5553
rtoes -0.985667
lfemur -39.1185 65.169 54.6643
ltibia 154.78
lfoot -12.3834 -68.4136
ltoes 8.8547
90
root -3.53255 6.67164 -2.79116 317.662 -79.2826 -351.962
lowerback 57.6866 -4.50886 0.728501
upperback 4.88073 -7.13884 -2.70033
thorax -16.4987 -3.59267 0.432789
lowerneck 4.13443 1.5531 -4.27969
upperneck -2.37244 1.90263 2.05156
head -1.51203 0.95086 1.32492
rclavicle 4.37823e-014 -1.90833e-014
rhumerus 73.0604 -15.1591 -134.429
rradius 10.0636
rwrist 105.15
rhand -18.4429 16.9463
rfingers 7.12502
rthumb 7.84284 -12.8883
lclavicle 4.37823e-014 -1.90833e-014
lhumerus 69.8313 4.03452 100.457
lradius 8.50697
lwrist -74.9592
lhand -16.9022 1.25942
lfingers 7.12502
lthumb 9.3297 31.033
rfemur 20.5217 -43.301 -142.427
rtibia 156.583
rfoot -80.3396 71.0967
rtoes -0.350442
lfemur -40.4486 64.5037 51.4812
ltibia 153.845
lfoot -11.8628 -67.8892
ltoes 9.27772
91
root -3.50404 6.79397 -2.78863 317.871 -79.3296 -351.684
lowerback 57.386 -4.51982 0.742825
upperback 4.76137 -7.1183 -2.70472
thorax -16.6245 -3.56943 0.412238
lowerneck 3.86305 1.54215 -4.37391
upperneck -2.13228 1.89373 2.06094
head -1.38862 0.946383 1.34485
rclavicle -4.06515e-014 7.55382e-015
rhumerus 73.0166 -15.1127 -134.405
rradius 10.0601
rwrist 105.122
rhand -18.3854 16.9983
rfingers 7.12502
rthumb 7.89838 -12.8341
lclavicle -4.06515e-014 7.55382e-015
lhumerus 69.9741 4.0064 100.558
lradius 8.40592
lwrist -75.3263
lhand -16.8625 1.44218
lfingers 7.12502
lthumb 9.36799 31.214
rfemur 22.253 -44.4393 -141.488
rtibia 155.487
rfoot -76.579 72.1403
rtoes 0.392353
lfemur -42.1479 63.656 47.8426
ltibia 152.854
lfoot -11.3535 -67.2034
ltoes 9.66733
92
root -3.47443 6.92207 -2.78592 318.067 -79.3739 -351.377
lowerback 57.071 -4.53144 0.748542
upperback 4.6425 -7.10488 -2.71318
thorax -16.7478 -3.54888 0.394102
lowerneck 3.62126 1.53546 -4.46422
upperneck -1.90653 1.89029 2.07624
head -1.2758 0.94432 1.36589
rclavicle 7.35503e-014 -3.97569e-015
rhumerus 73.023 -15.0532 -134.529
rradius 10.0319
rwrist 105.161
rhand -18.1621 17.0312
rfingers 7.12502
rthumb 8.11393 -12.7931
lclavicle 7.35503e-014 -3.97569e-015
lhumerus 70.1323 3.98448 100.647
lradius 8.35088
lwrist -75.4587
lhand -16.6735 1.55124
lfingers 7.12502
lthumb 9.55033 31.3148
rfemur 23.7169 -45.7289 -140.24
rtibia 154.329
rfoot -72.2956 73.2465
rtoes 1.23808
lfemur -44.1023 62.6135 43.8889
ltibia 151.807
lfoot -10.3385 -66.4307
ltoes 10.1332
93
root -3.44603 7.05573 -2.7834 318.243 -79.43 -351.041
lowerback 56.7246 -4.53114 0.739427
upperback 4.51432 -7.08353 -2.71369
thorax -16.8765 -3.52382 0.387189
lowerneck 3.4741 1.53429 -4.59224
upperneck -1.70924 1.889 2.10515
head -1.18982 0.943031 1.39772
rclavicle 2.4699e-014 1.94809e-014
rhumerus 73.0612 -15.0402 -134.894
rradius 10.0287
rwrist 105.48
rhand -17.8133 17.053
rfingers 7.12502
rthumb 8.4505 -12.758
lclavicle 2.4699e-014 1.94809e-014
lhumerus 70.2403 3.9726 100.745
lradius 8.40506
lwrist -75.3245
lhand -16.3404 1.5674
lfingers 7.12502
lthumb 9.87179 31.316
rfemur 24.8709 -47.1062 -138.718
rtibia 153.113
rfoot -67.2063 74.6312
rtoes 2.17249
lfemur -46.0304 61.4184 39.9394
ltibia 150.717
lfoot -9.53206 -65.5472
ltoes 10.5282
94
root -3.41812 7.19413 -2.78044 318.469 -79.4859 -350.776
lowerback 56.3484 -4.52991 0.739898
upperback 4.41917 -7.05812 -2.71711
thorax -16.9616 -3.50066 0.368418
lowerneck 3.37941 1.52829 -4.67066
upperneck -1.57058 1.88057 2.08999
head -1.13003 0.938642 1.40687
rclavicle 1.00883e-014 -1.15295e-014
rhumerus 73.0634 -14.9242 -134.946
rradius 9.97744
rwrist 105.442
rhand -17.39 16.9695
rfingers 7.12502
rthumb 8.85903 -12.8245
lclavicle 1.00883e-014 -1.15295e-014
lhumerus 70.4088 3.93269 100.838
lradius 8.46154
lwrist -75.078
lhand -15.9498 1.5833
lfingers 7.12502
lthumb 10.2486 31.3136
rfemur 25.7032 -48.5281 -136.854
rtibia 151.867
rfoot -61.517 75.7001
rtoes 2.96459
lfemur -47.708 60.1076 36.2737
ltibia 149.593
lfoot -8.80747 -64.6589
ltoes 10.8899
